<?xml version="1.0" encoding="UTF-8"?>
<svg width="656px" height="93px" viewBox="0 0 656 93" version="1.1" xmlns="http://www.w3.org/2000/svg" xmlns:xlink="http://www.w3.org/1999/xlink">
    <!-- Generator: Sketch 43 (38999) - http://www.bohemiancoding.com/sketch -->
    <title>Group 2</title>
    <desc>Created with Sketch.</desc>
    <defs>
        <polygon id="path-1" points="1.60607173e-20 0.615351429 1.60607173e-20 17.3562371 5.853899 17.3562371 5.853899 0.615351429 0 0.615351429"></polygon>
        <polygon id="path-3" points="0 40.1069029 655.550889 40.1069029 655.550889 -0.00046857143 0 -0.00046857143"></polygon>
    </defs>
    <g id="Welcome" stroke="none" stroke-width="1" fill="none" fill-rule="evenodd">
        <g id="首页-copy" transform="translate(-632.000000, -356.000000)">
            <g id="BANNER图-Copy-2" transform="translate(0.000000, 80.000000)">
                <g id="Group-2" transform="translate(631.000000, 276.000000)">
                    <text id="ENCODE-MIND-&amp;-DECODE" font-family="PingFangSC-Thin, PingFang SC" font-size="20" font-weight="300" letter-spacing="11" fill="#FFFFFF">
                        <tspan x="0.32" y="92">ENCODE MIND &amp; DECODE BUSINESS</tspan>
                    </text>
                    <g id="Page-1" transform="translate(1.000000, 0.000000)">
                        <g id="Group-3" transform="translate(0.000000, 15.506903)">
                            <mask id="mask-2" fill="white">
                                <use xlink:href="#path-1"></use>
                            </mask>
                            <g id="Clip-2"></g>
                            <path d="M5.853899,0.924608571 C5.094268,5.60680857 3.35102743,12.8509229 1.20604754,17.3562371 L-0.00035552153,16.7822371 C2.23468983,12.4092943 3.88786494,5.20969429 4.64749595,0.615351429 L5.853899,0.924608571 Z" id="Fill-1" fill="#FFFFFF" mask="url(#mask-2)"></path>
                        </g>
                        <path d="M12.154333,12.1468943 L12.154333,35.3798371 C12.154333,37.3244086 12.8689313,37.8538943 15.7296946,37.8538943 L26.5873221,37.8538943 C29.8498247,37.8538943 30.2965967,36.08738 30.6544884,27.7386086 C31.0562277,28.0478657 31.5480325,28.2692657 31.9497718,28.4016371 C31.5930652,36.7937514 31.011195,39.1354371 26.4984417,39.1354371 L15.8636077,39.1354371 C12.0204199,39.1354371 10.8578645,38.4724086 10.8578645,35.29198 L10.8578645,12.1468943 L12.154333,12.1468943 Z" id="Fill-4" fill="#FFD70D"></path>
                        <path d="M14.3886674,2.51763429 C18.6786272,5.65354857 23.7720656,10.0710057 26.2299044,12.8976629 L25.3363603,13.7375771 C22.8334888,10.9097486 17.8289307,6.40443429 13.4951232,3.26852 L14.3886674,2.51763429 Z" id="Fill-6" fill="#FFFFFF"></path>
                        <path d="M33.9161614,15.23888 C36.5967938,20.5841086 39.2786112,27.5177943 40.217188,32.0676229 L39.0095999,32.4659086 C37.9821426,27.8715657 35.346543,20.8921943 32.7547911,15.5926514 L33.9161614,15.23888 Z" id="Fill-8" fill="#FFFFFF"></path>
                        <mask id="mask-4" fill="white">
                            <use xlink:href="#path-3"></use>
                        </mask>
                        <g id="Clip-11"></g>
                        <path d="M76.8756055,35.9108457 L100.022427,35.9108457 L100.022427,30.2130171 L76.8756055,30.2130171 L76.8756055,35.9108457 Z M101.318896,24.5034743 L100.022427,24.5034743 L100.022427,28.9314743 L76.8756055,28.9314743 L76.8756055,24.5034743 L75.580322,24.5034743 L75.580322,37.1724743 L101.318896,37.1724743 L101.318896,24.5034743 Z" id="Fill-10" fill="#FFFFFF" mask="url(#mask-4)"></path>
                        <polygon id="Fill-12" fill="#FFD70D" mask="url(#mask-4)" points="75.580322 39.8855029 76.8756055 39.8855029 76.8756055 38.2209029 75.580322 38.2209029"></polygon>
                        <polygon id="Fill-13" fill="#FFD70D" mask="url(#mask-4)" points="100.022427 39.8855029 101.317711 39.8855029 101.317711 38.2209029 100.022427 38.2209029"></polygon>
                        <polygon id="Fill-14" fill="#FFD70D" mask="url(#mask-4)" points="100.022427 23.4545771 101.318896 23.4545771 101.318896 22.1730343 75.579137 22.1730343 75.579137 23.4545771 76.8756055 23.4545771"></polygon>
                        <path d="M78.7077264,14.8414143 C80.8977391,16.2553286 85.4104923,19.3467286 86.840874,20.4947286 L87.6443526,19.2588714 C86.3929168,18.3756143 80.9866194,14.9737857 79.1094658,13.8691286 C79.2884116,13.2951286 79.4673574,12.7211286 79.5562378,12.1471286 L88.5390818,12.1471286 L88.5390818,10.8655857 L79.7802164,10.8655857 C79.8690968,10.0713571 79.9141295,9.32047143 79.9141295,8.61292857 L79.9141295,6.4165 L78.618846,6.4165 L78.618846,8.61292857 C78.618846,9.32047143 78.5738133,10.0713571 78.4837479,10.8655857 L68.6085448,10.8655857 L68.6085448,12.1471286 L78.2609544,12.1471286 C77.5013234,15.3720714 75.1773976,18.9929571 68.2956859,21.7317571 C68.6085448,21.9976714 69.0114692,22.4826429 69.18923,22.7919 C74.6417452,20.4068714 77.3223775,17.5802143 78.7077264,14.8414143" id="Fill-15" fill="#FFFFFF" mask="url(#mask-4)"></path>
                        <path d="M81.7166236,5.38880571 L81.7166236,5.38880571 L87.3314937,5.38880571 L87.3314937,4.10843429 L73.9709946,4.10843429 C74.5078321,2.91592 75.0434845,1.63437714 75.4902566,0.397348571 L74.1949731,0.0880914286 C73.0324177,3.48992 71.2002968,6.80272 68.9664365,9.18774857 C69.3243282,9.36463429 69.9500461,9.80626286 70.1278068,9.93863429 C71.2453295,8.70160571 72.3178195,7.11197714 73.2563963,5.38880571 L76.9692262,5.38880571 L81.7166236,5.38880571 Z" id="Fill-16" fill="#FFFFFF" mask="url(#mask-4)"></path>
                        <polygon id="Fill-17" fill="#FFD70D" mask="url(#mask-4)" points="103.820701 5.34464286 105.117169 5.34464286 105.117169 4.06427143 90.7730606 4.06427143 90.7730606 5.34464286 92.068344 5.34464286"></polygon>
                        <polygon id="Fill-18" fill="#FFFFFF" mask="url(#mask-4)" points="103.820701 16.6964886 92.068344 16.6964886 92.068344 6.39377429 90.7730606 6.39377429 90.7730606 17.9780314 105.117169 17.9780314 105.117169 6.39377429 103.820701 6.39377429"></polygon>
                        <path d="M143.42888,7.46481143 C142.982108,5.83066857 141.641792,3.35661143 140.301476,1.54558286 L139.272834,1.94386857 C140.569302,3.79824 141.864586,6.31681143 142.35639,7.90644 L143.42888,7.46481143 Z" id="Fill-19" fill="#FFD70D" mask="url(#mask-4)"></path>
                        <polygon id="Fill-20" fill="#FFFFFF" mask="url(#mask-4)" points="170.431096 10.3359829 171.669496 10.3359829 173.054845 10.3359829 176.272315 10.3359829 176.272315 9.05561143 162.777903 9.05561143 162.420011 10.3359829"></polygon>
                        <path d="M162.420011,10.3359829 L162.777903,9.05561143 C163.492501,6.49252571 164.073186,3.75489714 164.564991,0.971582857 L163.224675,0.751354286 C162.018272,8.30472571 159.962172,15.5476686 156.610789,20.2298686 C156.968681,20.4067543 157.594399,20.80504 157.817192,20.9807543 C159.292607,18.7280971 160.49901,15.9892971 161.5715,12.9857543 L162.331131,10.6897543 L162.420011,10.3359829 Z" id="Fill-21" fill="#FFFFFF" mask="url(#mask-4)"></path>
                        <path d="M172.876018,11.38488 L171.500149,11.38488 C170.552092,17.2865371 169.084973,22.3330514 166.932883,26.5021657 L167.648666,27.8715657 C170.11006,23.38148 171.724128,17.9729943 172.876018,11.38488" id="Fill-22" fill="#FFFFFF" mask="url(#mask-4)"></path>
                        <path d="M154.689551,38.8258286 C155.00241,39.1350857 155.449182,39.6212286 155.628128,39.8859714 C160.54262,37.1471714 164.208047,33.6141429 166.933712,29.1088286 L166.262962,27.8272857 C163.582329,32.554 159.873055,36.1760571 154.689551,38.8258286" id="Fill-23" fill="#FFFFFF" mask="url(#mask-4)"></path>
                        <path d="M167.648192,27.8714486 L166.933594,26.5020486 C164.788614,21.9088771 163.314385,16.4757914 162.330775,10.6889343 L161.571144,12.9861057 C162.643634,18.4637057 164.207929,23.4985057 166.262843,27.8269343 L166.933594,29.1084771 C169.3464,33.6583057 172.473804,37.2803629 176.362025,39.4885057 C176.584818,39.1347343 176.987743,38.6931057 177.344449,38.4283629 C173.278468,36.3080771 170.106031,32.6415057 167.648192,27.8714486" id="Fill-24" fill="#FFD70D" mask="url(#mask-4)"></path>
                        <polygon id="Fill-25" fill="#FFFFFF" mask="url(#mask-4)" points="146.95838 7.70167429 148.254848 7.70167429 148.254848 0.0440457143 146.95838 0.0440457143"></polygon>
                        <path d="M156.208813,1.89935429 L155.047442,1.23632571 C154.153898,3.04735429 152.499538,5.78615429 151.293135,7.42029714 L152.231712,7.95095429 C153.52818,6.36015429 155.047442,3.97512571 156.208813,1.89935429" id="Fill-26" fill="#FFD70D" mask="url(#mask-4)"></path>
                        <polygon id="Fill-27" fill="#FFFFFF" mask="url(#mask-4)" points="150.740181 9.98268 158.085255 9.98268 158.085255 8.70113714 149.966329 8.70113714 145.217746 8.70113714 136.994533 8.70113714 136.994533 9.98268 144.763864 9.98268 146.511845 9.98268 148.255085 9.98268"></polygon>
                        <polygon id="Fill-28" fill="#FFFFFF" mask="url(#mask-4)" points="146.958972 9.98268 146.958972 11.5289657 146.958972 12.0795371 146.958972 18.77308 148.255441 18.77308 148.255441 12.6593943 148.255441 11.4844514 148.255441 10.2474229 148.255441 9.98268"></polygon>
                        <path d="M146.5122,9.98268 C144.36722,13.5602229 140.524032,17.0944229 136.949856,18.7285657 C137.217682,19.0378229 137.619422,19.4794514 137.798367,19.8765657 C141.194783,18.1100514 144.680079,14.8851086 146.958972,11.5289657 L146.958972,9.98268 L146.5122,9.98268 Z" id="Fill-29" fill="#FFFFFF" mask="url(#mask-4)"></path>
                        <path d="M148.254967,10.24754 L148.254967,11.4845686 C150.578892,13.0308543 154.599841,15.9898829 155.896309,17.0500257 L156.744821,15.9453686 C155.49457,14.9742543 150.13212,11.3967114 148.254967,10.24754" id="Fill-30" fill="#FFFFFF" mask="url(#mask-4)"></path>
                        <path d="M147.093122,20.1417771 L145.841686,19.9203771 C145.601117,20.6068343 145.296553,21.2944629 144.974214,22.0078629 L146.306235,22.0078629 C146.589467,21.3682629 146.860848,20.7450629 147.093122,20.1417771" id="Fill-31" fill="#FFD70D" mask="url(#mask-4)"></path>
                        <path d="M142.535218,29.1524057 C143.383729,27.7830057 144.322306,26.0610057 145.21585,24.3378343 L143.830501,24.3378343 C142.848077,26.3257486 141.685521,28.2691486 140.703097,29.7264057 C143.072055,30.56632 145.662622,31.7588343 147.986548,32.9068343 L149.059038,31.9790629 C146.959091,30.9634343 144.635165,29.9032914 142.535218,29.1524057" id="Fill-32" fill="#FFFFFF" mask="url(#mask-4)"></path>
                        <path d="M154.153306,24.3379514 C153.080816,27.4293514 151.293728,29.9479229 149.058682,31.97918 L147.986192,32.9069514 C144.813755,35.51338 140.881687,37.1920371 136.949619,38.1631514 C137.217445,38.3845514 137.530304,38.8706943 137.664217,39.2232943 C141.702942,38.1818943 145.695449,36.3673514 149.012464,33.6648657 L150.176205,32.55318 C152.459838,30.3766657 154.325141,27.6776943 155.518508,24.3379514 L154.153306,24.3379514 Z" id="Fill-33" fill="#FFFFFF" mask="url(#mask-4)"></path>
                        <path d="M150.176442,32.5535314 L149.012702,33.6652171 C149.071955,33.6171886 149.134764,33.5738457 149.192832,33.5258171 C150.936073,34.4090743 152.500368,35.3801886 153.661738,36.1755886 L154.689195,35.15996 C153.572858,34.36456 151.96353,33.4813029 150.176442,32.5535314" id="Fill-34" fill="#FFD70D" mask="url(#mask-4)"></path>
                        <path d="M154.153306,24.3379514 L155.518508,24.3379514 C155.63346,24.01698 155.749597,23.6983514 155.851514,23.3656657 L155.091883,22.9685514 L154.779024,23.0564086 L147.715996,23.0564086 L145.842398,23.0564086 L144.500896,23.0564086 L142.968598,23.0564086 L137.977076,23.0564086 L137.977076,24.3379514 L142.534862,24.3379514 L143.831331,24.3379514 L145.21668,24.3379514 L154.153306,24.3379514 Z" id="Fill-35" fill="#FFFFFF" mask="url(#mask-4)"></path>
                        <path d="M204.441234,24.6472086 L205.021919,25.9720943 L211.367978,23.7194371 L211.367978,22.26218 C208.731193,23.1454371 206.318387,24.0286943 204.441234,24.6472086" id="Fill-36" fill="#FFD70D" mask="url(#mask-4)"></path>
                        <path d="M211.367504,37.8100829 C211.367504,38.4731114 211.099678,38.6488257 210.518993,38.6488257 C210.027188,38.69334 208.105002,38.69334 205.871141,38.6488257 C206.050087,39.0471114 206.272881,39.5765971 206.362946,39.8858543 C209.177492,39.9303686 210.652906,39.8858543 211.456385,39.6656257 C212.261048,39.3997114 212.663973,39.0025971 212.663973,37.8100829 L212.663973,23.2339971 L211.367504,23.7189686 L211.367504,37.8100829 Z" id="Fill-37" fill="#FFFFFF" mask="url(#mask-4)"></path>
                        <polygon id="Fill-38" fill="#FFD70D" mask="url(#mask-4)" points="211.367504 23.7194371 212.663973 23.2332943 212.663973 21.7760371 211.367504 22.26218"></polygon>
                        <polygon id="Fill-39" fill="#FFFFFF" mask="url(#mask-4)" points="211.367504 10.8217743 211.367504 22.2619457 212.663973 21.7758029 212.663973 10.8217743"></polygon>
                        <polygon id="Fill-40" fill="#FFD70D" mask="url(#mask-4)" points="218.114947 19.8769171 212.663617 21.7758029 212.663617 23.2342314 218.338926 21.2018029"></polygon>
                        <polygon id="Fill-41" fill="#FFFFFF" mask="url(#mask-4)" points="218.338333 10.8217743 218.338333 9.54140286 214.424041 9.54140286 214.424041 9.54257429 209.676644 9.54257429 209.676644 9.54140286 204.887769 9.54140286 204.887769 10.8217743 211.367741 10.8217743 212.663025 10.8217743"></polygon>
                        <polygon id="Fill-42" fill="#FFD70D" mask="url(#mask-4)" points="211.36703 8.49356 212.663499 8.49356 212.663499 0.08856 211.36703 0.08856"></polygon>
                        <path d="M222.315316,18.0657714 C222.360348,17.0934857 222.360348,16.2102286 222.360348,15.3269714 L222.360348,12.1910571 L222.360348,10.9106857 L222.360348,3.44517143 L222.360348,2.1648 L221.06388,2.1648 L221.06388,15.3269714 C221.06388,22.4832286 220.572075,32.0233429 215.746463,39.0472286 C216.104354,39.1796 216.640007,39.4888571 216.863985,39.7536 C220.929967,33.9234 222.002457,26.0162571 222.270283,19.3473143 L222.315316,18.0657714 Z" id="Fill-43" fill="#FFFFFF" mask="url(#mask-4)"></path>
                        <polygon id="Fill-44" fill="#FFD70D" mask="url(#mask-4)" points="243.54078 12.1910571 243.54078 2.1648 223.421817 2.1648 223.421817 3.44517143 242.244312 3.44517143 242.244312 10.9106857 242.244312 12.1910571"></polygon>
                        <polygon id="Fill-45" fill="#FFFFFF" mask="url(#mask-4)" points="242.244786 12.1910571 242.244786 10.9106857 223.421106 10.9106857 223.421106 12.1910571 233.218094 12.1910571 234.514563 12.1910571"></polygon>
                        <polygon id="Fill-46" fill="#FFFFFF" mask="url(#mask-4)" points="233.21845 12.1910571 233.21845 18.0657714 234.514918 18.0657714 234.514918 16.7994571 234.514918 12.1910571"></polygon>
                        <polygon id="Fill-47" fill="#FFFFFF" mask="url(#mask-4)" points="234.514444 21.1795457 234.514444 19.34626 233.217976 19.34626 233.217976 20.8667743 233.217976 26.0608886 234.514444 26.0608886"></polygon>
                        <polygon id="Fill-48" fill="#FFD70D" mask="url(#mask-4)" points="234.699316 26.0606543 234.514444 26.0606543 233.217976 26.0606543 224.37023 26.0606543 224.37023 27.3410257 225.666699 27.3410257 242.334733 27.3410257 243.630016 27.3410257 243.630016 26.0606543"></polygon>
                        <polygon id="Fill-49" fill="#FFFFFF" mask="url(#mask-4)" points="223.421225 18.0657714 223.421225 19.3473143 232.148093 19.3473143 233.218213 19.3473143 233.218213 18.0657714"></polygon>
                        <polygon id="Fill-50" fill="#FFFFFF" mask="url(#mask-4)" points="233.218568 19.3468457 234.515037 19.3468457 234.515037 18.0653029 233.218568 18.0653029"></polygon>
                        <polygon id="Fill-51" fill="#FFFFFF" mask="url(#mask-4)" points="234.514444 18.0657714 234.514444 19.3473143 235.425765 19.3473143 245.373257 19.3473143 245.373257 18.0657714"></polygon>
                        <polygon id="Fill-52" fill="#FFD70D" mask="url(#mask-4)" points="224.370823 39.9745314 225.667291 39.9745314 225.667291 37.8624457 224.370823 37.8624457"></polygon>
                        <polygon id="Fill-53" fill="#FFFFFF" mask="url(#mask-4)" points="225.666699 28.5559143 224.37023 28.5559143 224.37023 36.6481429 225.666699 36.6481429 225.666699 35.4685143"></polygon>
                        <polygon id="Fill-54" fill="#FFFFFF" mask="url(#mask-4)" points="243.630253 28.5559143 242.333785 28.5559143 242.333785 35.4685143 225.666936 35.4685143 225.666936 36.6481429 243.630253 36.6481429"></polygon>
                        <polygon id="Fill-55" fill="#FFD70D" mask="url(#mask-4)" points="242.33414 39.7097886 243.630609 39.7097886 243.630609 37.8624457 242.33414 37.8624457"></polygon>
                        <path d="M293.515849,15.2830429 C293.783676,15.5044429 294.230448,15.9460714 294.454426,16.2108143 C299.225525,13.8527286 301.494938,9.65784286 302.557947,4.83741429 L301.211705,4.83741429 C300.218615,9.1799 298.040453,13.1873571 293.515849,15.2830429" id="Fill-56" fill="#FFFFFF" mask="url(#mask-4)"></path>
                        <path d="M294.230803,2.29682 L294.230803,3.57836286 L301.470407,3.57836286 C301.466851,3.59242 301.463296,3.56313429 301.460926,3.57836286 L302.801242,3.57836286 C302.804797,3.56313429 302.807168,3.59242 302.810723,3.57836286 L310.942685,3.57836286 C310.495913,10.29182 310.049141,12.80922 309.423423,13.5167629 C309.155597,13.8693629 308.753858,13.9138771 308.038074,13.8693629 C307.413542,13.8693629 305.312409,13.8693629 303.167429,13.6924771 C303.391408,14.0462486 303.525321,14.5323914 303.570354,14.9295057 C305.491355,15.0618771 307.457389,15.1063914 308.307086,15.0618771 C309.423423,15.0618771 309.960261,14.8416486 310.452066,14.3555057 C311.389457,13.38322 311.792382,10.7334486 312.239154,3.09222 C312.284187,2.87082 312.284187,2.29682 312.284187,2.29682 L294.230803,2.29682 Z" id="Fill-57" fill="#FFD70D" mask="url(#mask-4)"></path>
                        <polygon id="Fill-58" fill="#FFFFFF" mask="url(#mask-4)" points="303.525321 21.6030171 304.82179 21.6030171 304.82179 16.0340457 303.525321 16.0340457"></polygon>
                        <polygon id="Fill-59" fill="#FFFFFF" mask="url(#mask-4)" points="303.525321 29.0193314 304.82179 29.0193314 304.82179 23.5347029 303.525321 23.5347029"></polygon>
                        <polygon id="Fill-60" fill="#FFFFFF" mask="url(#mask-4)" points="303.525321 39.7976457 304.82179 39.7976457 304.82179 30.3008743 303.525321 30.3008743"></polygon>
                        <polygon id="Fill-61" fill="#FFFFFF" mask="url(#mask-4)" points="304.821316 29.0200343 303.524847 29.0200343 293.82859 29.0200343 293.82859 30.3015771 303.524847 30.3015771 304.821316 30.3015771 313.714094 30.3015771 313.714094 29.0200343"></polygon>
                        <path d="M299.771843,16.5641171 L298.386494,16.3427171 C297.49295,20.2740314 295.928656,24.02846 293.783676,26.7227457 C294.1866,26.8551171 294.812318,27.2088886 295.080144,27.3857743 C296.107601,25.9273457 297.091211,24.1608314 297.939722,22.2174314 L298.431527,20.93706 C298.96718,19.5231457 299.413952,18.0658886 299.771843,16.5641171" id="Fill-62" fill="#FFD70D" mask="url(#mask-4)"></path>
                        <polygon id="Fill-63" fill="#FFFFFF" mask="url(#mask-4)" points="306.612315 20.9369429 301.796183 20.9369429 298.431764 20.9369429 297.939959 22.2173143 303.525203 22.2173143 304.821671 22.2173143 312.417981 22.2173143 312.417981 20.9369429"></polygon>
                        <path d="M280.244349,5.16799143 L280.736154,3.88762 C281.137893,2.73844857 281.539633,1.54593429 281.897524,0.35342 L280.557208,0.0886771429 C279.037946,5.69864857 276.446194,10.9981914 273.183692,14.5323914 C273.496551,14.7092771 274.122268,15.1063914 274.346247,15.3277914 C275.105878,14.4433629 275.820476,13.4722486 276.535075,12.4121057 L277.294706,11.1305629 C278.412228,9.31953429 279.350805,7.28827714 280.244349,5.16799143" id="Fill-64" fill="#FFD70D" mask="url(#mask-4)"></path>
                        <path d="M289.404954,4.41710571 L288.51141,3.79859143 L288.242399,3.88762 L280.736154,3.88762 L280.244349,5.16799143 L287.572833,5.16799143 C286.813202,7.15590571 285.740712,9.54093429 284.668222,11.1317343 L286.142451,11.1317343 C287.348854,9.23167714 288.60029,6.66976286 289.404954,4.41710571" id="Fill-65" fill="#FFFFFF" mask="url(#mask-4)"></path>
                        <polygon id="Fill-66" fill="#FFFFFF" mask="url(#mask-4)" points="290.253939 20.6276857 290.253939 19.3473143 288.86622 19.3473143 284.712544 19.3473143 283.41726 19.3473143 279.075157 19.3473143 277.832017 19.3473143 277.832017 20.6276857 283.41726 20.6276857 284.712544 20.6276857"></polygon>
                        <polygon id="Fill-67" fill="#FFD70D" mask="url(#mask-4)" points="283.417023 37.9866171 284.712307 37.9866171 284.712307 29.10836 283.417023 29.10836"></polygon>
                        <polygon id="Fill-68" fill="#FFFFFF" mask="url(#mask-4)" points="277.652716 27.8274029 277.518803 29.1089457 283.416905 29.1089457 283.416905 27.8274029"></polygon>
                        <polygon id="Fill-69" fill="#FFD70D" mask="url(#mask-4)" points="283.417023 29.10836 284.712307 29.10836 284.712307 27.8268171 283.417023 27.8268171"></polygon>
                        <polygon id="Fill-70" fill="#FFFFFF" mask="url(#mask-4)" points="284.712307 29.10836 290.253702 29.10836 290.253702 27.8268171 284.712307 27.8268171"></polygon>
                        <polygon id="Fill-71" fill="#FFD70D" mask="url(#mask-4)" points="283.417023 27.8268171 284.712307 27.8268171 284.712307 20.6272171 283.417023 20.6272171"></polygon>
                        <path d="M286.142807,11.1311486 L284.668578,11.1311486 L277.295061,11.1311486 L276.53543,12.41152 L276.53543,22.9684343 C276.53543,27.9598914 276.177538,34.5409771 273.184047,39.2676914 C273.451873,39.4000629 274.033744,39.7538343 274.256537,39.9740629 C276.222571,36.9271771 277.161148,32.9068343 277.51904,29.1090629 L277.652953,27.82752 C277.786866,26.1043486 277.831899,24.4268629 277.831899,22.9684343 L277.831899,20.62792 L277.831899,19.3463771 L277.831899,12.41152 L283.417142,12.41152 L284.712425,12.41152 L290.253821,12.41152 L290.253821,19.3463771 L290.253821,20.62792 L290.253821,27.82752 L290.253821,29.1090629 L290.253821,29.6912629 L290.253821,37.76592 C290.253821,38.2954057 290.074875,38.4277771 289.539223,38.4277771 C289.047418,38.4722914 287.439275,38.4722914 285.383176,38.4277771 C285.605969,38.7815486 285.829948,39.2676914 285.918828,39.6202914 C288.4217,39.6202914 289.762016,39.6202914 290.521647,39.3555486 C291.23743,39.13532 291.505257,38.7370343 291.505257,37.76592 L291.505257,11.1311486 L286.142807,11.1311486 Z" id="Fill-72" fill="#FFFFFF" mask="url(#mask-4)"></path>
                        <polygon id="Fill-73" fill="#FFD70D" mask="url(#mask-4)" points="283.417023 18.1320743 284.712307 18.1320743 284.712307 12.4119886 283.417023 12.4119886"></polygon>
                        <path d="M348.079635,5.44468286 C346.751169,12.6138257 344.53864,19.17734 341.257177,23.5865971 C341.613883,23.8079971 342.150721,24.2051114 342.373514,24.4265114 C343.491037,22.8802257 344.384581,21.2015686 345.278125,19.3026829 L346.484528,16.29914 C347.688561,13.0085971 348.673356,9.32562571 349.476834,5.44468286 L348.079635,5.44468286 Z" id="Fill-74" fill="#FFD70D" mask="url(#mask-4)"></path>
                        <polygon id="Fill-75" fill="#FFFFFF" mask="url(#mask-4)" points="346.574238 34.0998171 353.857689 34.0998171 353.857689 32.8182743 346.574238 32.8182743"></polygon>
                        <polygon id="Fill-76" fill="#FFFFFF" mask="url(#mask-4)" points="345.278955 34.0998171 346.575423 34.0998171 346.575423 32.8182743 345.278955 32.8182743"></polygon>
                        <polygon id="Fill-77" fill="#FFFFFF" mask="url(#mask-4)" points="345.278599 19.3025657 345.278599 32.8185086 346.575068 32.8185086 346.575068 17.5793943 346.485002 16.2990229"></polygon>
                        <polygon id="Fill-78" fill="#FFFFFF" mask="url(#mask-4)" points="346.485121 16.2990229 346.575186 17.5793943 353.858637 17.5793943 353.858637 16.2990229"></polygon>
                        <polygon id="Fill-79" fill="#FFFFFF" mask="url(#mask-4)" points="353.857689 17.5803314 355.154158 17.5803314 355.154158 16.29996 353.857689 16.29996"></polygon>
                        <polygon id="Fill-80" fill="#FFFFFF" mask="url(#mask-4)" points="353.857689 32.8182743 355.154158 32.8182743 355.154158 17.57916 353.857689 17.57916"></polygon>
                        <polygon id="Fill-81" fill="#FFFFFF" mask="url(#mask-4)" points="353.857689 34.0998171 355.154158 34.0998171 355.154158 32.8182743 353.857689 32.8182743"></polygon>
                        <polygon id="Fill-82" fill="#FFD70D" mask="url(#mask-4)" points="345.278955 37.9421029 346.575423 37.9421029 346.575423 35.3860457 345.278955 35.3860457"></polygon>
                        <path d="M342.150365,4.10796571 L348.316294,4.10796571 C348.310368,4.14896571 348.302073,4.06696571 348.294962,4.10796571 L349.721789,4.10796571 C349.730084,4.06696571 349.73838,4.14896571 349.746675,4.10796571 L356.7623,4.10796571 L356.7623,2.82642286 L342.150365,2.82642286 L342.150365,4.10796571 Z" id="Fill-83" fill="#FFFFFF" mask="url(#mask-4)"></path>
                        <polygon id="Fill-84" fill="#FFD70D" mask="url(#mask-4)" points="359.577912 3.04782286 359.577912 4.32936571 375.486315 4.32936571 375.709109 3.04782286"></polygon>
                        <path d="M375.977291,2.91533429 L375.709464,3.04770571 L375.485486,4.32924857 C375.122854,7.80136286 374.503061,13.5765057 373.892749,18.2106771 L375.152481,18.2106771 C375.848118,13.1559629 376.54494,6.91576286 376.870835,3.09222 L375.977291,2.91533429 Z" id="Fill-85" fill="#FFD70D" mask="url(#mask-4)"></path>
                        <path d="M362.929058,8.25997714 L361.722655,8.12760571 C361.485641,11.1463771 361.093382,15.0800343 360.702308,18.2112629 L361.958484,18.2112629 C362.337707,15.1714057 362.699154,11.3279486 362.929058,8.25997714" id="Fill-86" fill="#FFFFFF" mask="url(#mask-4)"></path>
                        <path d="M374.949715,19.6561029 C374.960381,19.5811314 374.971046,19.7322457 374.982897,19.6561029 L373.730276,19.6561029 C373.71961,19.7322457 373.708945,19.5811314 373.698279,19.6561029 L361.766977,19.6561029 C361.777642,19.5811314 361.788308,19.7322457 361.798974,19.6561029 L360.546353,19.6561029 C360.475248,20.1820743 360.405329,20.4468171 360.33778,20.8931314 L360.694487,20.8931314 L360.694487,20.9364743 L379.686447,20.9364743 C378.657804,32.2442743 377.5865,36.6172171 376.201151,37.9421029 C375.798226,38.3403886 375.307607,38.4282457 374.45791,38.3837314 C373.653246,38.3837314 371.374353,38.3837314 368.961547,38.1189886 C369.185526,38.5161029 369.274406,39.04676 369.319439,39.4438743 C371.553299,39.62076 373.653246,39.6652743 374.681889,39.62076 C375.933325,39.62076 376.60289,39.4005314 377.273641,38.7820171 C378.881783,37.1912171 379.954273,32.7304171 381.071796,20.53936 C381.116828,20.2746171 381.116828,19.6561029 381.116828,19.6561029 L374.949715,19.6561029 Z" id="Fill-87" fill="#FFFFFF" mask="url(#mask-4)"></path>
                        <polygon id="Fill-88" fill="#FFD70D" mask="url(#mask-4)" points="357.478083 29.55116 375.664195 29.55116 375.664195 28.2696171 357.478083 28.2696171"></polygon>
                        <polygon id="Fill-89" fill="#FFD70D" mask="url(#mask-4)" points="436.632345 25.9278143 437.928813 25.9278143 437.928813 24.6474429 422.51103 24.6474429 422.51103 25.9278143 423.807498 25.9278143"></polygon>
                        <polygon id="Fill-90" fill="#FFD70D" mask="url(#mask-4)" points="422.511267 36.30796 423.807735 36.30796 423.807735 34.7616743 422.511267 34.7616743"></polygon>
                        <polygon id="Fill-91" fill="#FFFFFF" mask="url(#mask-4)" points="436.632345 27.1424686 436.632345 32.68684 423.807498 32.68684 423.807498 27.1424686 422.51103 27.1424686 422.51103 33.9672114 423.807498 33.9672114 437.928813 33.9672114 437.928813 27.1424686"></polygon>
                        <path d="M443.64797,23.54302 C441.636903,21.7765057 437.659802,18.9053343 434.621278,16.8295629 L433.772767,17.8006771 C436.900171,19.8764486 440.788392,22.9245057 442.843306,24.69102 L443.64797,23.54302 Z" id="Fill-92" fill="#FFFFFF" mask="url(#mask-4)"></path>
                        <path d="M426.846141,17.4033286 L425.549672,16.9171857 C423.53979,19.5236143 420.590147,22.1733857 417.819449,24.0722714 C418.177341,24.2936714 418.758026,24.7798143 418.936972,25.0000429 C421.573756,23.0566429 424.656128,20.0976143 426.846141,17.4033286" id="Fill-93" fill="#FFFFFF" mask="url(#mask-4)"></path>
                        <path d="M440.117404,7.99488286 L438.732055,7.55325429 C437.904875,9.08314 436.584705,11.1788257 435.332084,12.9090257 L436.789722,12.9090257 C437.959388,11.35454 439.164606,9.56576857 440.117404,7.99488286" id="Fill-94" fill="#FFFFFF" mask="url(#mask-4)"></path>
                        <polygon id="Fill-95" fill="#FFFFFF" mask="url(#mask-4)" points="413.97638 39.84216 415.272848 39.84216 415.272848 16.2987886 413.97638 16.2987886"></polygon>
                        <polygon id="Fill-96" fill="#FFFFFF" mask="url(#mask-4)" points="446.77573 14.0904114 440.01134 14.0904114 430.220277 14.0904114 413.976498 14.0904114 413.976498 15.0837829 446.77573 15.0837829"></polygon>
                        <path d="M445.479735,37.4123829 C445.479735,38.1632686 445.211909,38.3401543 444.407245,38.3846686 C443.692647,38.4280114 441.055862,38.4725257 437.659447,38.3846686 C437.928458,38.7817829 438.151251,39.2234114 438.240132,39.5771829 C442.307298,39.5771829 444.362212,39.5771829 445.434702,39.3557829 C446.418312,39.09104 446.776204,38.6048971 446.776204,37.4123829 L446.776204,16.2985543 L445.479735,16.2985543 L445.479735,37.4123829 Z" id="Fill-97" fill="#FFD70D" mask="url(#mask-4)"></path>
                        <path d="M429.437656,0 L428.365166,0.353771429 C429.124797,1.9434 429.92946,3.8868 430.465113,5.38857143 L431.761581,5.38857143 C431.269777,3.8868 430.287352,1.72317143 429.437656,0" id="Fill-98" fill="#FFD70D" mask="url(#mask-4)"></path>
                        <polygon id="Fill-99" fill="#FFFFFF" mask="url(#mask-4)" points="432.185008 5.38880571 431.761937 5.38880571 430.465468 5.38880571 410.982889 5.38880571 410.982889 6.67034857 449.635189 6.67034857 449.635189 5.38880571"></polygon>
                        <path d="M421.796668,7.37660286 L420.769211,7.86274571 C421.886734,9.49688857 423.22705,11.7495457 423.941648,13.0744314 L424.969106,12.4114029 C424.343388,11.1310314 422.958039,8.96623143 421.796668,7.37660286" id="Fill-100" fill="#FFD70D" mask="url(#mask-4)"></path>
                        <polygon id="Fill-101" fill="#FFD70D" mask="url(#mask-4)" points="492.863052 34.5965029 494.159521 34.5965029 494.159521 0.574702857 492.863052 0.574702857"></polygon>
                        <polygon id="Fill-102" fill="#FFD70D" mask="url(#mask-4)" points="503.31894 34.5965029 504.615409 34.5965029 504.615409 0.707074286 503.31894 0.707074286"></polygon>
                        <path d="M516.635592,11.7935914 L515.384156,11.2195914 C513.418122,15.5925343 509.932826,21.8198486 507.297226,25.7066486 L508.368531,26.3251629 C511.094196,22.3505057 514.356699,16.4312771 516.635592,11.7935914" id="Fill-103" fill="#FFFFFF" mask="url(#mask-4)"></path>
                        <polygon id="Fill-104" fill="#FFFFFF" mask="url(#mask-4)" points="504.615409 36.08738 504.615409 36.08738 503.31894 36.08738 494.159521 36.08738 492.863052 36.08738 479.412488 36.08738 479.412488 37.3689229 518.065973 37.3689229 518.065973 36.08738"></polygon>
                        <path d="M489.020101,25.3097686 C487.679785,21.77674 484.775174,15.6361114 482.093357,11.0874543 L480.843106,11.4400543 C483.479891,16.0343971 486.428349,22.2617114 487.634752,25.8837686 L489.020101,25.3097686 Z" id="Fill-105" fill="#FFFFFF" mask="url(#mask-4)"></path>
                        <polygon id="Fill-106" fill="#FFD70D" mask="url(#mask-4)" points="554.277026 10.3362171 555.707408 10.3362171 555.707408 1.19321714 554.277026 1.19321714"></polygon>
                        <polygon id="Fill-107" fill="#FFFFFF" mask="url(#mask-4)" points="565.940503 11.5720743 567.236971 11.5720743 567.236971 0.131902857 565.940503 0.131902857"></polygon>
                        <polygon id="Fill-108" fill="#FFFFFF" mask="url(#mask-4)" points="578.183479 11.5732457 579.479948 11.5732457 579.479948 0.707074286 578.183479 0.707074286"></polygon>
                        <polygon id="Fill-109" fill="#FFFFFF" mask="url(#mask-4)" points="565.940503 12.8536171 567.236971 12.8536171 578.184664 12.8536171 579.479948 12.8536171 586.942344 12.8536171 586.942344 11.5732457 580.852261 11.5732457 579.479948 11.5732457 578.184664 11.5732457 567.236971 11.5732457 565.940503 11.5732457 555.707408 11.5732457 555.707408 11.5509886 554.278211 11.5509886 554.278211 11.5732457 547.306434 11.5732457 547.306434 12.8536171 554.278211 12.8536171 555.707408 12.8536171"></polygon>
                        <polygon id="Fill-110" fill="#FFFFFF" mask="url(#mask-4)" points="554.277026 35.2044743 555.707408 35.2044743 555.707408 12.8536171 554.277026 12.8536171"></polygon>
                        <polygon id="Fill-111" fill="#FFD70D" mask="url(#mask-4)" points="555.707645 35.2040057 554.277263 35.2040057 554.277263 36.4855486 585.5122 36.4855486 585.5122 35.2040057"></polygon>
                        <polygon id="Fill-112" fill="#FFD70D" mask="url(#mask-4)" points="578.18419 26.3699114 567.236497 26.3699114 567.236497 14.16714 565.940029 14.16714 565.940029 27.6502829 579.480659 27.6502829 579.480659 14.16714 578.18419 14.16714"></polygon>
                        <path d="M627.802078,27.1204457 C627.802078,30.8315314 627.131328,35.6894457 618.864267,39.0912743 C619.222159,39.3560171 619.58005,39.7531314 619.802844,40.1069029 C628.293883,36.4403314 629.097362,31.3610171 629.097362,27.1204457 L629.097362,24.7354171 L627.802078,24.7354171 L627.802078,27.1204457 Z" id="Fill-113" fill="#FFFFFF" mask="url(#mask-4)"></path>
                        <path d="M615.647508,27.6065886 C616.0054,27.8713314 616.363292,28.31296 616.586085,28.7112457 C621.770774,26.9365314 627.80516,23.5065886 631.680344,19.5237314 L629.926438,19.5237314 C626.192277,23.0696457 620.609404,26.1270743 615.647508,27.6065886" id="Fill-114" fill="#FFD70D" mask="url(#mask-4)"></path>
                        <path d="M641.232497,19.52338 L639.54614,19.52338 C643.272005,23.5179514 649.224621,26.8330943 654.613142,28.4894943 C654.835935,28.1368943 655.23886,27.6952657 655.551719,27.3860086 C650.389546,25.9838086 644.883703,23.0692943 641.232497,19.52338" id="Fill-115" fill="#FFD70D" mask="url(#mask-4)"></path>
                        <polygon id="Fill-116" fill="#FFFFFF" mask="url(#mask-4)" points="634.683316 2.73856571 635.979785 2.73856571 648.804631 2.73856571 650.099915 2.73856571 650.099915 1.45819429 620.652066 1.45819429 620.652066 2.73856571 621.948535 2.73856571"></polygon>
                        <path d="M639.974661,18.0657714 L639.86682,18.0657714 C639.901187,18.1067714 639.937924,18.0856857 639.974661,18.0657714" id="Fill-117" fill="#FFFFFF" mask="url(#mask-4)"></path>
                        <polygon id="Fill-118" fill="#FFD70D" mask="url(#mask-4)" points="634.683316 10.3359829 634.683316 15.5699257 635.979785 15.5699257 635.979785 10.3359829 648.804631 10.3359829 648.804631 9.05561143 635.979785 9.05561143 635.979785 3.95286857 634.683316 3.95286857 634.683316 9.05561143 621.948535 9.05561143 621.948535 10.3359829"></polygon>
                        <polygon id="Fill-119" fill="#FFFFFF" mask="url(#mask-4)" points="620.652896 18.0653029 621.948179 18.0653029 621.948179 16.7849314 620.652896 16.7849314"></polygon>
                        <polygon id="Fill-120" fill="#FFFFFF" mask="url(#mask-4)" points="621.947942 9.05514286 621.947942 3.95357143 620.652659 3.95357143 620.652659 16.7854 621.947942 16.7854 621.947942 10.3355143"></polygon>
                        <path d="M635.979311,16.7849314 L634.682842,16.7849314 L630.292151,16.7849314 L621.948061,16.7849314 L621.948061,18.0653029 L638.303236,18.0653029 C638.36486,18.1473029 638.435964,17.9844743 638.499958,18.0653029 L639.866346,18.0653029 L639.974187,18.0653029 C640.010925,18.0453886 640.047662,18.0254743 640.083214,18.0653029 L648.804157,18.0653029 L648.804157,16.7849314 L640.083214,16.7849314 L635.979311,16.7849314 Z" id="Fill-121" fill="#FFFFFF" mask="url(#mask-4)"></path>
                        <polygon id="Fill-122" fill="#FFFFFF" mask="url(#mask-4)" points="650.099678 3.95310286 648.804394 3.95310286 648.804394 9.05467429 648.804394 10.3362171 648.804394 16.7849314 650.099678 16.7849314"></polygon>
                        <polygon id="Fill-123" fill="#FFFFFF" mask="url(#mask-4)" points="648.804276 18.0653029 650.099559 18.0653029 650.099559 16.7849314 648.804276 16.7849314"></polygon>
                        <path d="M639.974661,18.0657714 L640.083688,18.0657714 C640.048136,18.0247714 640.011399,18.0458571 639.974661,18.0657714" id="Fill-124" fill="#FFFFFF" mask="url(#mask-4)"></path>
                        <polygon id="Fill-125" fill="#FFFFFF" mask="url(#mask-4)" points="642.592129 39.84216 643.888598 39.84216 643.888598 24.64756 642.592129 24.64756"></polygon>
                    </g>
                </g>
            </g>
        </g>
    </g>
</svg>